<svg width="1867" height="367" viewBox="0 0 1867 367" fill="none" xmlns="http://www.w3.org/2000/svg">
<g clip-path="url(#clip0_1937_59)">
<path d="M56.5908 366.391L0 -1H180.851L266.486 160.089L352.12 -1H533.87L476.381 366.391H298.224L266.486 271.474L236.544 366.391H56.5908Z" fill="#293CF5"/>
<path d="M602.438 6.78516L484.166 366.391H657.232L689.869 273.87L723.105 366.391H896.171L771.312 6.78516H602.438Z" fill="#293CF5"/>
<path d="M1103.07 367.289H898.567L894.375 4.08984H1103.07L1147.39 119.966V4.08984H1346.2V361.899L1173.44 367.289L1103.07 142.423V367.289Z" fill="#293CF5"/>
<path d="M1710 363.397H1353.09L1437.82 162.185H1353.09V-0.101562H1710L1620.77 204.703H1710V363.397Z" fill="#293CF5"/>
<rect x="1758" y="258" width="109" height="109" fill="#293CF5"/>
</g>
<defs>
<clipPath id="clip0_1937_59">
<rect width="1867" height="367" fill="white"/>
</clipPath>
</defs>
</svg>
